HIERARCHY
ROOT Hips
{
	OFFSET -10.006785 0.225719 33.511873
	CHANNELS 6 Xposition Yposition Zposition Zrotation Yrotation Xrotation 
	JOINT Spine
	{
		OFFSET 0.000005 8.340477 -2.713852
		CHANNELS 3 Zrotation Yrotation Xrotation
		JOINT Spine1
		{
			OFFSET 0.000008 11.909872 -2.100047
			CHANNELS 3 Zrotation Yrotation Xrotation
			JOINT Spine2
			{
				OFFSET 0.000015 12.047635 -1.054091
				CHANNELS 3 Zrotation Yrotation Xrotation
				JOINT Spine3
				{
					OFFSET -0.000077 12.093753 -0.000097
					CHANNELS 3 Zrotation Yrotation Xrotation
					JOINT Neck
					{
						OFFSET 0.000011 15.549124 1.554857
						CHANNELS 3 Zrotation Yrotation Xrotation
						JOINT Neck1
						{
							OFFSET 0.000037 4.687380 0.410008
							CHANNELS 3 Zrotation Yrotation Xrotation
							JOINT Head
							{
								OFFSET 0.000013 4.633807 0.817002
								CHANNELS 3 Zrotation Yrotation Xrotation
								JOINT HeadEnd
								{
									OFFSET 0.000002 9.727675 -0.000012
									CHANNELS 3 Zrotation Yrotation Xrotation
									End Site
									{
										OFFSET 0.000000 0.000000 0.000000
									}
								}
							}
						}
					}
					JOINT RightShoulder
					{
						OFFSET -0.000025 11.106406 6.072676
						CHANNELS 3 Zrotation Yrotation Xrotation
						JOINT RightArm
						{
							OFFSET -19.427872 0.000045 0.000033
							CHANNELS 3 Zrotation Yrotation Xrotation
							JOINT RightForeArm
							{
								OFFSET -29.350696 -0.000044 -0.000030
								CHANNELS 3 Zrotation Yrotation Xrotation
								JOINT RightHand
								{
									OFFSET -27.018027 -0.000148 0.000053
									CHANNELS 3 Zrotation Yrotation Xrotation
									JOINT RightHandMiddle1
									{
										OFFSET -9.244085 -0.000015 0.000012
										CHANNELS 3 Zrotation Yrotation Xrotation
										JOINT RightHandMiddle2
										{
											OFFSET -4.870013 -0.000004 0.000026
											CHANNELS 3 Zrotation Yrotation Xrotation
											JOINT RightHandMiddle3
											{
												OFFSET -3.169054 -0.000041 -0.000008
												CHANNELS 3 Zrotation Yrotation Xrotation
												JOINT RightHandMiddle4
												{
													OFFSET -1.888376 0.000012 -0.000022
													CHANNELS 3 Zrotation Yrotation Xrotation
													End Site
													{
														OFFSET 0.000000 0.000000 0.000000
													}
												}
											}
										}
									}
									JOINT RightHandRing
									{
										OFFSET -0.249973 -0.249976 -0.956510
										CHANNELS 3 Zrotation Yrotation Xrotation
										JOINT RightHandRing1
										{
											OFFSET -8.140239 0.000019 -0.734572
											CHANNELS 3 Zrotation Yrotation Xrotation
											JOINT RightHandRing2
											{
												OFFSET -4.501556 -0.000002 -0.406246
												CHANNELS 3 Zrotation Yrotation Xrotation
												JOINT RightHandRing3
												{
													OFFSET -3.068843 -0.000011 -0.276968
													CHANNELS 3 Zrotation Yrotation Xrotation
													JOINT RightHandRing4
													{
														OFFSET -1.869963 0.000024 -0.168779
														CHANNELS 3 Zrotation Yrotation Xrotation
														End Site
														{
															OFFSET 0.000000 0.000000 0.000000
														}
													}
												}
											}
										}
										JOINT RightHandPinky
										{
											OFFSET -0.163001 -0.250019 -0.975148
											CHANNELS 3 Zrotation Yrotation Xrotation
											JOINT RightHandPinky1
											{
												OFFSET -6.681510 0.000011 -1.494066
												CHANNELS 3 Zrotation Yrotation Xrotation
												JOINT RightHandPinky2
												{
													OFFSET -3.580969 0.000042 -0.800815
													CHANNELS 3 Zrotation Yrotation Xrotation
													JOINT RightHandPinky3
													{
														OFFSET -2.276501 -0.000012 -0.509044
														CHANNELS 3 Zrotation Yrotation Xrotation
														JOINT RightHandPinky4
														{
															OFFSET -1.690363 -0.000007 -0.378008
															CHANNELS 3 Zrotation Yrotation Xrotation
															End Site
															{
																OFFSET 0.000000 0.000000 0.000000
															}
														}
													}
												}
											}
										}
									}
									JOINT RightHandIndex
									{
										OFFSET -0.249989 -0.250047 0.956506
										CHANNELS 3 Zrotation Yrotation Xrotation
										JOINT RightHandIndex1
										{
											OFFSET -8.934122 0.000028 0.806239
											CHANNELS 3 Zrotation Yrotation Xrotation
											JOINT RightHandIndex2
											{
												OFFSET -4.694671 0.000040 0.423672
												CHANNELS 3 Zrotation Yrotation Xrotation
												JOINT RightHandIndex3
												{
													OFFSET -2.811711 -0.000014 0.253757
													CHANNELS 3 Zrotation Yrotation Xrotation
													JOINT RightHandIndex4
													{
														OFFSET -1.709980 -0.000024 0.154311
														CHANNELS 3 Zrotation Yrotation Xrotation
														End Site
														{
															OFFSET 0.000000 0.000000 0.000000
														}
													}
												}
											}
										}
										JOINT RightHandThumb1
										{
											OFFSET -0.163044 -0.750017 0.975110
											CHANNELS 3 Zrotation Yrotation Xrotation
											JOINT RightHandThumb2
											{
												OFFSET -5.411657 0.835551 2.244701
												CHANNELS 3 Zrotation Yrotation Xrotation
												JOINT RightHandThumb3
												{
													OFFSET -3.567162 0.550776 1.479650
													CHANNELS 3 Zrotation Yrotation Xrotation
													JOINT RightHandThumb4
													{
														OFFSET -2.150540 0.332040 0.892043
														CHANNELS 3 Zrotation Yrotation Xrotation
														End Site
														{
															OFFSET 0.000000 0.000000 0.000000
														}
													}
												}
											}
										}
									}
								}
							}
						}
					}
					JOINT LeftShoulder
					{
						OFFSET -0.000032 11.106482 6.072577
						CHANNELS 3 Zrotation Yrotation Xrotation
						JOINT LeftArm
						{
							OFFSET 19.427868 -0.000117 -0.000010
							CHANNELS 3 Zrotation Yrotation Xrotation
							JOINT LeftForeArm
							{
								OFFSET 29.350842 -0.000033 -0.000015
								CHANNELS 3 Zrotation Yrotation Xrotation
								JOINT LeftHand
								{
									OFFSET 27.018165 -0.000140 -0.000073
									CHANNELS 3 Zrotation Yrotation Xrotation
									JOINT LeftHandMiddle1
									{
										OFFSET 9.402668 0.000011 0.000010
										CHANNELS 3 Zrotation Yrotation Xrotation
										JOINT LeftHandMiddle2
										{
											OFFSET 4.950094 0.000004 0.000033
											CHANNELS 3 Zrotation Yrotation Xrotation
											JOINT LeftHandMiddle3
											{
												OFFSET 3.211975 -0.000042 -0.000013
												CHANNELS 3 Zrotation Yrotation Xrotation
												JOINT LeftHandMiddle4
												{
													OFFSET 1.927612 -0.000008 -0.000015
													CHANNELS 3 Zrotation Yrotation Xrotation
													End Site
													{
														OFFSET 0.000000 0.000000 0.000000
													}
												}
											}
										}
									}
									JOINT LeftHandRing
									{
										OFFSET 0.249934 -0.249991 -0.906146
										CHANNELS 3 Zrotation Yrotation Xrotation
										JOINT LeftHandRing1
										{
											OFFSET 8.286062 0.000020 -0.747771
											CHANNELS 3 Zrotation Yrotation Xrotation
											JOINT LeftHandRing2
											{
												OFFSET 4.585420 -0.000008 -0.413823
												CHANNELS 3 Zrotation Yrotation Xrotation
												JOINT LeftHandRing3
												{
													OFFSET 3.124417 0.000031 -0.281939
													CHANNELS 3 Zrotation Yrotation Xrotation
													JOINT LeftHandRing4
													{
														OFFSET 1.908770 -0.000050 -0.172221
														CHANNELS 3 Zrotation Yrotation Xrotation
														End Site
														{
															OFFSET 0.000000 0.000000 0.000000
														}
													}
												}
											}
										}
										JOINT LeftHandPinky
										{
											OFFSET 0.167562 -0.250028 -0.925008
											CHANNELS 3 Zrotation Yrotation Xrotation
											JOINT LeftHandPinky1
											{
												OFFSET 6.823510 0.000021 -1.525899
												CHANNELS 3 Zrotation Yrotation Xrotation
												JOINT LeftHandPinky2
												{
													OFFSET 3.642823 0.000024 -0.814597
													CHANNELS 3 Zrotation Yrotation Xrotation
													JOINT LeftHandPinky3
													{
														OFFSET 2.333095 -0.000021 -0.521729
														CHANNELS 3 Zrotation Yrotation Xrotation
														JOINT LeftHandPinky4
														{
															OFFSET 1.725490 -0.000008 -0.385863
															CHANNELS 3 Zrotation Yrotation Xrotation
															End Site
															{
																OFFSET 0.000000 0.000000 0.000000
															}
														}
													}
												}
											}
										}
									}
									JOINT LeftHandIndex
									{
										OFFSET 0.249994 -0.250048 0.906158
										CHANNELS 3 Zrotation Yrotation Xrotation
										JOINT LeftHandIndex1
										{
											OFFSET 9.088005 -0.000029 0.820120
											CHANNELS 3 Zrotation Yrotation Xrotation
											JOINT LeftHandIndex2
											{
												OFFSET 4.776535 -0.000001 0.431060
												CHANNELS 3 Zrotation Yrotation Xrotation
												JOINT LeftHandIndex3
												{
													OFFSET 2.865152 0.000019 0.258605
													CHANNELS 3 Zrotation Yrotation Xrotation
													JOINT LeftHandIndex4
													{
														OFFSET 1.745485 0.000007 0.157521
														CHANNELS 3 Zrotation Yrotation Xrotation
														End Site
														{
															OFFSET 0.000000 0.000000 0.000000
														}
													}
												}
											}
										}
										JOINT LeftHandThumb1
										{
											OFFSET 0.167520 -0.749963 0.924972
											CHANNELS 3 Zrotation Yrotation Xrotation
											JOINT LeftHandThumb2
											{
												OFFSET 5.551458 0.857112 2.302706
												CHANNELS 3 Zrotation Yrotation Xrotation
												JOINT LeftHandThumb3
												{
													OFFSET 3.625643 0.559759 1.503883
													CHANNELS 3 Zrotation Yrotation Xrotation
													JOINT LeftHandThumb4
													{
														OFFSET 2.195250 0.338948 0.910559
														CHANNELS 3 Zrotation Yrotation Xrotation
														End Site
														{
															OFFSET 0.000000 0.000000 0.000000
														}
													}
												}
											}
										}
									}
								}
							}
						}
					}
				}
			}
		}
	}
	JOINT RightUpLeg
	{
		OFFSET -8.786526 -0.000057 0.000053
		CHANNELS 3 Zrotation Yrotation Xrotation
		JOINT RightLeg
		{
			OFFSET -0.000028 -42.170380 -0.000025
			CHANNELS 3 Zrotation Yrotation Xrotation
			JOINT RightFoot
			{
				OFFSET 0.000053 -45.949084 -0.000036
				CHANNELS 3 Zrotation Yrotation Xrotation
				JOINT RightForeFoot
				{
					OFFSET -0.000044 -4.685828 -0.000004
					CHANNELS 3 Zrotation Yrotation Xrotation
					JOINT RightToeBase
					{
						OFFSET -0.000086 -0.000002 18.351098
						CHANNELS 3 Zrotation Yrotation Xrotation
						JOINT RightToeBaseEnd
						{
							OFFSET 0.000165 -0.000027 6.416979
							CHANNELS 3 Zrotation Yrotation Xrotation
							End Site
							{
								OFFSET 0.000000 0.000000 0.000000
							}
						}
					}
				}
			}
		}
	}
	JOINT LeftUpLeg
	{
		OFFSET 8.786472 0.000047 -0.000015
		CHANNELS 3 Zrotation Yrotation Xrotation
		JOINT LeftLeg
		{
			OFFSET -0.000057 -42.170503 0.000009
			CHANNELS 3 Zrotation Yrotation Xrotation
			JOINT LeftFoot
			{
				OFFSET 0.000045 -45.949120 -0.000095
				CHANNELS 3 Zrotation Yrotation Xrotation
				JOINT LeftForeFoot
				{
					OFFSET 0.000063 -4.685864 0.000037
					CHANNELS 3 Zrotation Yrotation Xrotation
					JOINT LeftToeBase
					{
						OFFSET 0.000059 0.000021 18.351056
						CHANNELS 3 Zrotation Yrotation Xrotation
						JOINT LeftToeBaseEnd
						{
							OFFSET 0.000086 0.000039 7.521946
							CHANNELS 3 Zrotation Yrotation Xrotation
							End Site
							{
								OFFSET 0.000000 0.000000 0.000000
							}
						}
					}
				}
			}
		}
	}
}
MOTION
Frames: 4
Frame Time: 0.066667
-10.006785 0.225719 33.511873 0.960347 3.619295 -4.020450 -0.973062 -0.123791 2.742996 -0.289512 0.031672 -1.707852 -0.288163 0.228481 0.575957 0.373146 0.582539 8.087478 4.202181 -4.364316 11.310197 0.560512 -3.036733 -6.639664 0.456002 -0.269806 -3.408380 -0.002441 -0.006877 -0.001242 16.844072 -7.506568 -2.258971 53.081196 5.519412 9.573697 179.994659 56.564903 178.577240 21.401388 -10.544451 0.158475 23.743134 -7.535643 0.002954 21.973980 0.000475 -0.001850 13.480962 0.003069 -0.000134 -0.002560 -0.001807 -0.002931 -0.618610 -0.791684 -7.845991 24.859339 -7.567080 -2.165480 35.384571 0.949426 -2.991782 11.911543 0.112004 -1.068012 0.000258 -0.000261 -0.001637 -1.182596 -1.446047 -6.480894 17.344131 -6.339220 -3.755822 32.005779 1.959246 -6.813055 29.243036 1.629952 -6.277433 -0.002552 -0.001977 -0.001088 -0.234963 6.191767 -0.379050 18.674337 -8.107122 1.691021 12.323141 -0.119107 1.104899 7.026349 -0.038099 0.635396 0.002574 0.000998 -0.000351 8.975189 -8.042556 49.962036 -2.157734 0.996596 -0.762719 -5.345288 3.252671 -1.806508 -0.001440 0.000771 -0.000100 -13.185504 6.252672 -1.466542 -56.501091 -6.996076 17.694592 179.996689 -48.187313 -172.484573 -15.993352 17.217020 0.013176 -28.697660 3.711934 -0.000039 -34.772617 -0.001677 -0.001234 -16.940052 0.000642 0.000923 0.001263 0.000791 0.000195 -1.118870 1.702349 -10.987762 -26.484747 3.217761 -2.298379 -39.693081 -1.189733 -3.302520 -7.430115 -0.043251 -0.669642 0.000240 0.002809 0.002110 -0.759921 0.568538 -6.081732 -13.604284 7.964873 -2.953821 -27.840679 -1.493612 -5.996811 -22.190172 -0.949740 -4.845957 0.002005 0.000859 0.000242 0.121129 -6.408406 -4.223827 -24.682789 11.824288 2.259948 -27.889326 0.597790 2.419565 -11.028060 0.085136 0.989222 -0.000043 -0.000275 0.001168 -12.303889 8.106312 51.676697 -2.593155 5.670860 0.232075 0.000000 0.000000 0.000000 -0.000572 -0.002272 -0.000872 -7.315081 -5.714050 12.447406 0.003120 0.000431 0.974886 0.000000 -0.000000 -0.000000 -0.000000 0.000000 -0.000000 0.000000 -0.000000 0.000000 0.000000 0.000000 0.000000 3.022245 -5.016833 12.638286 -0.002036 -0.000802 -1.840925 -0.000000 0.000000 -0.000000 0.000000 -0.000000 0.000000 -0.000000 -0.000000 -0.000000 -0.000000 0.000000 -0.000000 
-10.072769 0.241010 33.395284 0.963936 3.723640 -4.073339 -1.185261 -0.114669 2.808004 -0.332211 0.037532 -1.707006 -0.357724 0.117751 0.393449 0.316776 0.551069 7.836843 4.292946 -4.714291 12.217404 0.578199 -3.381649 -6.476720 0.482000 -0.290494 -3.421409 -0.002338 -0.006355 -0.000904 15.998575 -7.275140 -2.077267 52.165752 8.209267 3.393337 179.994247 55.849873 177.004883 12.774065 -10.084287 0.127916 23.808033 -7.585070 0.001837 21.758564 0.000285 -0.001835 13.292259 0.003193 -0.000135 -0.002951 -0.001942 -0.002964 -0.634414 -0.753308 -7.714599 24.814610 -7.518459 -2.161662 35.103115 0.934027 -2.970903 11.808499 0.110625 -1.058670 0.000288 -0.000001 -0.001331 -1.151537 -1.389953 -6.542679 17.156506 -6.300686 -3.717140 31.735058 1.930030 -6.761900 29.403055 1.647750 -6.308934 -0.002320 -0.001961 -0.000908 -0.214695 6.131821 -0.342638 19.229445 -8.158374 1.741497 12.564768 -0.122275 1.126012 7.161443 -0.039928 0.646727 0.002730 0.001114 -0.000325 8.830700 -8.404799 50.094383 -1.958927 0.680932 -0.723119 -5.085101 3.095350 -1.715330 -0.001120 0.000498 -0.000522 -12.260030 5.820766 -1.275554 -56.723186 -12.313668 12.625801 179.996140 -47.915810 -171.287384 -12.075050 17.430893 0.012679 -28.990545 3.739426 -0.000576 -34.931274 -0.001584 -0.001410 -17.001894 0.000595 0.000439 0.000968 0.000918 0.000243 -1.086021 1.699358 -10.923223 -26.723934 3.229767 -2.317633 -39.899254 -1.201041 -3.317235 -7.499499 -0.043690 -0.675435 0.000229 0.002522 0.002177 -0.732573 0.577758 -6.058897 -13.557479 7.964448 -2.943140 -27.964430 -1.508546 -6.022758 -22.268816 -0.956061 -4.862561 0.001950 0.000657 0.000157 0.113867 -6.413177 -4.199486 -24.877953 11.891167 2.277624 -27.994900 0.603298 2.428130 -11.070729 0.086160 0.993536 -0.000239 -0.000035 0.000972 -12.233548 8.104019 51.729820 -2.586561 5.656863 0.231142 0.000000 0.000000 0.000000 -0.000441 -0.002037 -0.000635 -7.142221 -6.066459 12.424262 0.002394 0.000202 1.013650 0.000000 -0.000000 -0.000000 0.000000 0.000000 0.000000 0.000000 -0.000000 0.000000 0.000000 0.000000 0.000000 3.196538 -5.133219 12.378718 -0.001622 -0.000722 -1.758969 -0.000000 0.000000 -0.000000 0.000000 -0.000000 0.000000 -0.000000 -0.000000 -0.000000 -0.000000 0.000000 -0.000000 
-10.127561 0.256801 33.275436 0.960457 3.745520 -4.127450 -1.359987 -0.108718 2.894022 -0.367999 0.041798 -1.703006 -0.413136 0.015316 0.240059 0.278327 0.523063 7.624887 4.388912 -5.022839 13.025783 0.580723 -3.683763 -6.303463 0.500049 -0.307840 -3.421616 -0.002266 -0.005870 -0.000641 15.252447 -7.085288 -1.920635 51.288223 10.589683 -2.199869 179.993851 55.762817 175.813522 4.919410 -9.514967 0.088827 23.857021 -7.629576 0.000848 21.565859 0.000120 -0.001843 13.116900 0.003306 -0.000147 -0.003291 -0.002039 -0.002971 -0.648915 -0.721077 -7.604925 24.771643 -7.480322 -2.158041 34.848148 0.920132 -2.951944 11.714936 0.109345 -1.050204 0.000297 0.000229 -0.001027 -1.124774 -1.341717 -6.592556 17.010143 -6.269936 -3.686932 31.497734 1.904185 -6.716895 29.543217 1.663291 -6.336456 -0.002112 -0.001931 -0.000754 -0.195155 6.079284 -0.315072 19.737507 -8.207993 1.787552 12.803468 -0.125766 1.146944 7.286288 -0.041609 0.657240 0.002862 0.001223 -0.000314 8.697865 -8.723803 50.208935 -1.787852 0.391088 -0.692005 -4.836387 2.944790 -1.628137 -0.000851 0.000250 -0.000878 -11.484742 5.458619 -1.115479 -56.849785 -16.765530 8.158609 179.995651 -47.796806 -170.303223 -8.565917 17.639311 0.011817 -29.220501 3.761580 -0.001050 -35.068684 -0.001499 -0.001552 -17.062763 0.000548 0.000011 0.000708 0.001031 0.000277 -1.055920 1.692798 -10.868984 -26.901678 3.243361 -2.331916 -40.067574 -1.210321 -3.329247 -7.575045 -0.044242 -0.681822 0.000206 0.002251 0.002226 -0.707632 0.581933 -6.045371 -13.496603 7.979588 -2.929509 -28.071247 -1.521634 -6.045142 -22.343529 -0.962089 -4.878302 0.001895 0.000487 0.000080 0.109889 -6.414875 -4.180128 -25.028408 11.944822 2.291284 -28.074850 0.607596 2.434621 -11.109046 0.087111 0.997380 -0.000405 0.000171 0.000799 -12.156940 8.094008 51.771858 -2.578183 5.648478 0.228830 0.000000 0.000000 0.000000 -0.000323 -0.001854 -0.000417 -6.970981 -6.346047 12.388484 0.001674 -0.000003 1.054172 0.000000 -0.000000 -0.000000 0.000000 0.000000 0.000000 0.000000 -0.000000 0.000000 0.000000 0.000000 0.000000 3.354245 -5.209221 12.152268 -0.001256 -0.000631 -1.688716 -0.000000 0.000000 -0.000000 0.000000 -0.000000 0.000000 -0.000000 -0.000000 -0.000000 -0.000000 0.000000 -0.000000 
-10.171168 0.273092 33.151970 0.949905 3.684914 -4.182768 -1.497231 -0.105938 3.001072 -0.396875 0.044470 -1.695854 -0.454391 -0.078816 0.115782 0.257798 0.498521 7.451612 4.490069 -5.289928 13.734801 0.568067 -3.943066 -6.119813 0.510149 -0.321846 -3.409000 -0.002225 -0.005421 -0.000452 14.605695 -6.937629 -1.789249 50.453373 12.647079 -7.016622 179.993408 56.255169 174.980286 -1.811571 -8.937652 0.051543 23.890091 -7.669170 -0.000012 21.395859 -0.000019 -0.001872 12.954893 0.003405 -0.000170 -0.003580 -0.002100 -0.002952 -0.662111 -0.694993 -7.516970 24.730438 -7.452674 -2.154613 34.619648 0.907743 -2.934919 11.630856 0.108162 -1.042617 0.000288 0.000431 -0.000726 -1.102305 -1.301338 -6.630521 16.905075 -6.247014 -3.665221 31.293861 1.881732 -6.678101 29.663509 1.676578 -6.360019 -0.001928 -0.001887 -0.000625 -0.176342 6.034153 -0.296353 20.198374 -8.256141 1.829203 13.039296 -0.129581 1.167698 7.400880 -0.043140 0.666936 0.002968 0.001324 -0.000317 8.576769 -8.999545 50.305012 -1.644509 0.127094 -0.669396 -4.599157 2.801014 -1.544950 -0.000634 0.000028 -0.001168 -10.859315 5.167037 -0.986440 -56.872955 -20.291977 4.461439 179.995193 -47.829979 -169.528427 -5.501728 17.863424 0.011131 -29.387520 3.778444 -0.001460 -35.184856 -0.001421 -0.001659 -17.122669 0.000502 -0.000362 0.000482 0.001130 0.000299 -1.028570 1.682668 -10.825052 -27.018007 3.258574 -2.341253 -40.198078 -1.217580 -3.338579 -7.656742 -0.044906 -0.688803 0.000170 0.001996 0.002257 -0.685096 0.581061 -6.041156 -13.421639 8.010282 -2.912928 -28.161119 -1.532877 -6.063975 -22.414305 -0.967826 -4.893183 0.001841 0.000348 0.000010 0.109196 -6.413498 -4.165752 -25.134106 11.985322 2.300948 -28.129171 0.610681 2.439040 -11.143005 0.087988 1.000754 -0.000542 0.000344 0.000647 -12.074070 8.076279 51.802784 -2.568024 5.645703 0.225144 0.000000 0.000000 0.000000 -0.000218 -0.001723 -0.000217 -6.801367 -6.553087 12.339689 0.000959 -0.000186 1.096456 0.000000 -0.000000 -0.000000 0.000000 0.000000 0.000000 -0.000000 -0.000000 0.000000 0.000000 0.000000 0.000000 3.495362 -5.244884 11.959072 -0.000939 -0.000529 -1.630177 -0.000000 0.000000 -0.000000 0.000000 -0.000000 0.000000 -0.000000 -0.000000 -0.000000 -0.000000 0.000000 -0.000000 
